<svg data-v-0dd9719b="" version="1.0" xmlns="http://www.w3.org/2000/svg" xmlns:xlink="http://www.w3.org/1999/xlink" width="100%" height="100%" viewBox="0 0 340.000000 250.000000" preserveAspectRatio="xMidYMid meet" color-interpolation-filters="sRGB" style="margin: auto;"> <rect data-v-0dd9719b="" x="0" y="0" width="100%" height="100%" fill="#ffffff" fill-opacity="1" class="background"></rect> <rect data-v-0dd9719b="" x="0" y="0" width="100%" height="100%" fill="url(#watermark)" fill-opacity="1" class="watermarklayer"></rect> <g data-v-0dd9719b="" class="iconmbgsvg" transform="translate(95,63.12493896484375)"><g fill="#333" hollow-target="text"><g mask="url(#dfecfb3e-597a-417f-9f36-6eb04d3d0f4b)"><g><rect fill="#333" fill-opacity="0" stroke-width="2" x="0" y="0" width="150" height="123.75012375012375" class="image-rect"></rect> <svg x="0" y="0" width="150" height="123.75012375012375" filtersec="colorsb5975692660" class="image-svg-svg primary" style="overflow: visible;"><svg viewBox="0 0 263.25 217.18099975585938" xmlns="http://www.w3.org/2000/svg"><defs><linearGradient x1="0%" y1="49.978%" y2="49.978%" id="a4991f71a-1043-4a3b-a399-8e3af93c3215"><stop stop-color="#C2D73E" offset="0%"></stop><stop stop-color="#7CBF4A" offset="100%"></stop></linearGradient><linearGradient x1="0%" y1="50.022%" y2="50.022%" id="b228d9392-5749-446d-ba8a-959377a687c3"><stop stop-color="#C2D73E" offset="0%"></stop><stop stop-color="#7CBF4A" offset="100%"></stop></linearGradient><linearGradient x1=".036%" y1="50.022%" y2="50.022%" id="c2dee7c5f-47a2-4f5f-b879-c4ca1c4b708c"><stop stop-color="#C2D73E" offset="0%"></stop><stop stop-color="#7CBF4A" offset="100%"></stop></linearGradient><linearGradient x1="0%" y1="50%" y2="50%" id="dfaa7e3b5-d67d-494d-a74a-de292074abe0"><stop stop-color="#C2D73E" offset="0%"></stop><stop stop-color="#7CBF4A" offset="100%"></stop></linearGradient><linearGradient x1="0%" y1="49.977%" y2="49.977%" id="eece17a15-a766-4654-93f9-cee02857ad70"><stop stop-color="#C2D73E" offset="0%"></stop><stop stop-color="#7CBF4A" offset="100%"></stop></linearGradient><linearGradient x1="0%" y1="49.977%" y2="49.977%" id="f9e132e9f-55d1-4af1-9cb4-b407bc7078e1"><stop stop-color="#C2D73E" offset="0%"></stop><stop stop-color="#7CBF4A" offset="100%"></stop></linearGradient><linearGradient x1="0%" y1="49.977%" y2="49.977%" id="g6aee8b41-ed77-4a55-bd56-df70fdabac40"><stop stop-color="#C2D73E" offset="0%"></stop><stop stop-color="#7CBF4A" offset="100%"></stop></linearGradient><linearGradient x1="0%" y1="49.954%" y2="49.954%" id="hb4531cf7-2dc8-40e8-9ea4-2ee0159a59e2"><stop stop-color="#C2D73E" offset="0%"></stop><stop stop-color="#7CBF4A" offset="100%"></stop></linearGradient><linearGradient x1="0%" y1="50.026%" y2="50.026%" id="i1838ab89-2fed-4ff4-b972-66ba35ddb233"><stop stop-color="#C2D73E" offset="0%"></stop><stop stop-color="#7CBF4A" offset="100%"></stop></linearGradient></defs><g fill-rule="nonzero" fill="none"><path d="M72.475 26.41C51.987 38.992 43.622 65.552 43.622 96.272c0 42.862 16.2 77.625 59.062 77.625 38.708 0 113.818-28.35 128.014-65.414 1.474 4.336 2.261 8.767 2.261 13.27 0 52.735-107.578 95.428-160.312 95.428C19.912 217.181 0 174.487 0 121.753c0-52.207 19.682-94.49 71.162-95.33z" fill="url(#a4991f71a-1043-4a3b-a399-8e3af93c3215)" opacity=".64"></path><path d="M87.075 0c52.65 0 160.228 42.694 160.228 95.428 0 52.65-107.578 95.344-160.312 95.344-52.735 0-72.647-42.694-72.647-95.344C14.344 42.778 34.425 0 87.075 0zm15.61 18.647c-42.779 0-59.063 34.762-59.063 77.625 0 42.862 16.2 77.625 59.062 77.625 42.863 0 130.36-34.763 130.36-77.625 0-42.863-87.582-77.625-130.36-77.625z" fill="url(#b228d9392-5749-446d-ba8a-959377a687c3)" opacity=".65"></path><path d="M103.022 18.647c52.397 0 160.228 42.694 160.228 95.428 0 52.65-107.578 95.344-160.313 95.344-52.734 0-72.73-42.694-72.73-95.344 0-51.413 19.47-93.413 69.175-95.358-40.316 1.753-55.76 35.813-55.76 77.555 0 42.862 16.2 77.625 59.062 77.625 42.863 0 130.36-34.763 130.36-77.625 0-42.863-87.582-77.625-130.36-77.625h.338z" fill="url(#c2dee7c5f-47a2-4f5f-b879-c4ca1c4b708c)" opacity=".36"></path><path d="M87.075 12.066c52.65 0 160.228 42.693 160.228 95.428 0 52.65-107.578 95.344-160.312 95.344-52.735 0-72.647-42.525-72.647-95.344 0-52.819 20.081-95.428 72.731-95.428zm15.61 6.58c-42.779 0-59.063 34.763-59.063 77.626 0 42.862 16.2 77.625 59.062 77.625 42.863 0 130.36-34.763 130.36-77.625 0-42.863-87.582-77.625-130.36-77.625z" fill="url(#b228d9392-5749-446d-ba8a-959377a687c3)" opacity=".63"></path><path d="M78.111 23.445c-24.602 10.95-34.49 39.43-34.49 72.827 0 42.862 16.2 77.625 59.063 77.625 35.144 0 100.293-23.37 122.619-55.412-13.15 41.388-97.065 73.384-139.915 73.384-46.576 0-64.294-37.8-64.294-84.375 0-43.78 15.656-79.808 56.22-83.973z" fill="url(#dfaa7e3b5-d67d-494d-a74a-de292074abe0)"></path><path d="M66.704 30.582c-16.302 13.75-23.082 38.033-23.082 65.69 0 42.862 16.2 77.625 59.062 77.625 35.578 0 101.906-23.95 123.426-56.603a37.21 37.21 0 0 1 .268 4.46c0 50.624-103.106 91.462-153.562 91.462-50.457 0-69.694-40.922-69.694-91.463 0-48.013 17.286-87.27 62.346-91.076z" fill="url(#eece17a15-a766-4654-93f9-cee02857ad70)" opacity=".64"></path><path d="M86.569 5.063c50.54 0 153.562 40.921 153.562 91.378 0 50.625-103.106 91.462-153.562 91.462-50.457 0-69.694-40.922-69.694-91.462 0-50.541 19.153-91.379 69.694-91.379zm16.115 13.584c-42.778 0-59.062 34.762-59.062 77.625 0 42.862 16.2 77.625 59.062 77.625 42.863 0 130.36-34.763 130.36-77.625 0-42.863-87.582-77.625-130.36-77.625z" fill="url(#f9e132e9f-55d1-4af1-9cb4-b407bc7078e1)" opacity=".65"></path><path d="M62.669 34.399C49.275 48.576 43.622 71.018 43.622 96.272c0 42.862 16.2 77.625 59.062 77.625 42.863 0 130.36-34.763 130.36-77.625 0-16.539-13.04-31.872-31.514-44.467 30.208 16.348 53.873 38.34 53.873 62.523 0 50.625-103.106 91.463-153.562 91.463-50.457 0-69.694-40.922-69.694-91.463 0-34.368 8.856-64.248 30.416-79.853z" fill="url(#g6aee8b41-ed77-4a55-bd56-df70fdabac40)" opacity=".36"></path><path d="M86.569 21.875c6.513 0 13.898.675 21.822 1.96a90.39 90.39 0 0 0-5.707-.188c-42.778 0-59.062 34.762-59.062 77.625 0 42.862 16.2 77.625 59.062 77.625 42.863 0 130.36-34.763 130.36-77.625 0-6.73-2.159-13.259-5.964-19.486 8.165 9.753 13.051 20.292 13.051 31.298 0 50.625-103.106 91.379-153.562 91.379-50.457 0-69.694-40.922-69.694-91.379 0-50.456 19.153-91.209 69.694-91.209z" fill="url(#hb4531cf7-2dc8-40e8-9ea4-2ee0159a59e2)" opacity=".63"></path><path d="M68.69 28.995C50.95 42.409 43.622 67.518 43.622 96.272c0 42.862 16.2 77.625 59.062 77.625 29.207 0 79.137-16.14 107.988-39.986-24.919 31.974-90.103 55.005-125.706 55.005-44.635 0-61.678-36.197-61.678-80.832 0-38.385 12.48-70.593 44.472-78.859z" fill="url(#i1838ab89-2fed-4ff4-b972-66ba35ddb233)"></path></g></svg></svg> <!----></g></g> <g transform="translate(13.56573486328125,35.59881019592285)"><g data-gra="path-name" fill-rule="" class="tp-name" transform="translate(0,0)"><g transform="scale(1)"><g><path d="M5.23 2.96L5.23 2.96Q3.59 2.96 3.24 1.91L3.24 1.91Q2.96 1.13 3.51 0.7L3.51 0.7Q4.02 0.35 4.99 0.39L4.99 0.39Q5.77 0.39 6.55 0.39L6.55 0.39Q7.25 0.39 7.25-0.35L7.25-0.35 7.25-10.8 3.63-9.67Q2.18-9.2 1.83-10.63 1.48-12.05 2.69-12.36L2.69-12.36Q3.35-12.56 4.76-12.95L4.76-12.95Q6.4-13.42 7.25-13.65L7.25-13.65 7.25-22.15 3.28-22.15Q1.95-22.15 1.95-23.48 1.95-24.8 3.28-24.8L3.28-24.8 7.25-24.8 7.25-31.24Q7.25-32.6 8.66-32.6L8.66-32.6Q10.02-32.6 10.02-31.24L10.02-31.24 10.02-24.8 12.99-24.8Q14.31-24.8 14.31-23.48 14.31-22.15 12.99-22.15L12.99-22.15 10.02-22.15 10.02-14.47 12.99-15.33Q14.31-15.72 14.55-14.31L14.55-14.31Q14.74-13.14 13.61-12.79L13.61-12.79 10.02-11.66 10.02-0.35Q10.02 1.87 8.7 2.5L8.7 2.5Q7.68 2.89 5.23 2.96ZM32.14 1.25L18.88 1.25Q17.86 1.25 17.24 0.62 16.61 0 16.61-1.01L16.61-1.01 16.61-10.3Q16.61-11.31 17.24-11.93 17.86-12.56 18.88-12.56L18.88-12.56 32.14-12.56Q33.15-12.56 33.77-11.93 34.4-11.31 34.4-10.3L34.4-10.3 34.4-1.01Q34.4 0 33.77 0.62 33.15 1.25 32.14 1.25L32.14 1.25ZM20.16-1.36L20.16-1.36 30.73-1.36Q31.55-1.36 31.55-2.18L31.55-2.18 31.55-9.09Q31.55-9.91 30.73-9.91L30.73-9.91 20.16-9.91Q19.34-9.91 19.34-9.09L19.34-9.09 19.34-2.18Q19.34-1.36 20.16-1.36ZM31-17.51L19.77-17.51Q18.49-17.51 18.49-18.84L18.49-18.84Q18.49-20.12 19.77-20.12L19.77-20.12 31-20.12Q32.29-20.12 32.29-18.84L32.29-18.84Q32.29-17.51 31-17.51L31-17.51ZM16.03-18.6Q14.74-17.59 13.92-18.84L13.92-18.84Q13.18-19.97 14.35-20.86L14.35-20.86Q16.96-23.01 19.42-25.93L19.42-25.93Q21.8-28.78 23.28-31.55L23.28-31.55Q23.83-32.56 25.16-32.56L25.16-32.56 25.27-32.56Q26.44-32.56 27.11-31.59L27.11-31.59Q29.17-28.47 31.65-25.76 34.13-23.05 36.47-21.25L36.47-21.25Q37.13-20.75 37.23-20.26 37.32-19.77 36.89-19.07L36.89-19.07Q36.04-17.75 34.75-18.8L34.75-18.8Q32.1-21.1 29.52-24.06 26.95-27.03 25.31-29.64L25.31-29.64Q23.79-26.91 21.37-24.02L21.37-24.02Q18.84-20.9 16.03-18.6L16.03-18.6ZM47.38 2.81Q46.02 3.04 45.47 1.99L45.47 1.99Q44.73 0.47 46.64 0.16L46.64 0.16Q55.42-1.17 61.62-4.49L61.62-4.49Q58.73-7.25 54.21-9.71L54.21-9.71Q51.79-8.46 49.02-7.41L49.02-7.41Q47.81-6.98 47.11-7.84L47.11-7.84Q46.02-9.2 48.24-9.91L48.24-9.91Q52.92-11.66 56.71-14.08L56.71-14.08Q60.22-16.34 62.4-18.84L62.4-18.84Q62.75-19.23 63.14-19.3L63.14-19.3Q63.38-19.34 64.04-19.19L64.04-19.19Q66.11-18.72 64.7-17.2L64.7-17.2Q63.77-16.26 63.3-15.83L63.3-15.83 72.54-15.83Q73.79-15.83 74.2-15.11 74.61-14.39 74.02-13.1L74.02-13.1Q67.31-0.51 47.38 2.81L47.38 2.81ZM64.19-6.01L64.19-6.01Q68.84-9.09 71.29-13.34L71.29-13.34 60.22-13.34Q58.66-12.17 56.82-11.12L56.82-11.12Q61.39-8.58 64.19-6.01ZM44.5-11.97Q43.17-11.66 42.63-12.68L42.63-12.68Q42.16-13.49 42.41-13.94 42.67-14.39 43.64-14.59L43.64-14.59Q50.54-16.15 56.36-19.38L56.36-19.38Q53.74-21.64 49.57-23.79L49.57-23.79Q47.93-22.89 45.36-21.72L45.36-21.72Q44.15-21.18 43.33-22.04L43.33-22.04Q42.16-23.32 44.34-24.18L44.34-24.18Q51.87-27.3 56.16-32.02L56.16-32.02Q56.71-32.68 57.84-32.45L57.84-32.45Q59.9-31.98 58.46-30.42L58.46-30.42Q57.76-29.72 57.37-29.37L57.37-29.37 66.73-29.37Q68.02-29.37 68.41-28.66 68.8-27.96 68.09-26.79L68.09-26.79Q64.43-21.18 57.64-17.2L57.64-17.2Q51.79-13.73 44.5-11.97L44.5-11.97ZM58.81-20.86L58.81-20.86Q63.1-23.75 65.44-26.91L65.44-26.91 54.41-26.91Q53.63-26.32 51.99-25.23L51.99-25.23Q56.47-22.93 58.81-20.86ZM92.43 2.92L92.43 2.92Q90.79 2.92 90.28 1.95L90.28 1.95Q89.86 1.09 90.44 0.66L90.44 0.66Q90.99 0.27 92.12 0.31L92.12 0.31Q93.64 0.31 95.16 0.31L95.16 0.31Q95.67 0.27 95.84 0.14 96.02 0 96.02-0.39L96.02-0.39 96.02-5.89 81.74-5.89Q80.42-5.89 80.42-7.25L80.42-7.25Q80.42-8.58 81.74-8.58L81.74-8.58 96.02-8.58 96.02-9.71Q96.02-10.61 96.91-10.61L96.91-10.61 97.62-10.61Q100.27-11.86 102.61-13.49L102.61-13.49 88.37-13.49Q87.09-13.49 87.09-14.78 87.09-16.07 88.37-16.07L88.37-16.07 96.33-16.07 105.57-16.03 105.77-16.03 105.85-16.07Q106.39-16.18 106.94-15.72L106.94-15.72Q108.19-14.63 107.29-13.88L107.29-13.88Q103.7-11 98.83-8.81L98.83-8.81 98.83-8.58 113.3-8.58Q114.62-8.58 114.62-7.25L114.62-7.25Q114.62-5.89 113.3-5.89L113.3-5.89 98.83-5.89 98.83-0.35Q98.83 0.86 98.47 1.48L98.47 1.48Q98.09 2.15 97.11 2.46L97.11 2.46Q95.9 2.85 92.43 2.92ZM82.84-15.48Q81.63-14.98 80.85-15.95L80.85-15.95Q80.26-16.73 80.44-17.22 80.61-17.71 81.55-18.06L81.55-18.06Q84.63-19.34 87.56-21.25L87.56-21.25Q90.52-23.2 92.66-25.39L92.66-25.39 81.86-25.39Q80.53-25.39 80.53-26.71 80.53-28.04 81.86-28.04L81.86-28.04 95.98-28.04 95.98-31.24Q95.98-32.64 97.38-32.64L97.38-32.64Q98.79-32.64 98.79-31.24L98.79-31.24 98.79-28.04 113.22-28.04Q114.54-28.04 114.54-26.71 114.54-25.39 113.22-25.39L113.22-25.39 102.02-25.39Q106.51-20.98 113.3-18.37L113.3-18.37Q114.35-18.02 114.54-17.59L114.54-17.59Q114.78-17.08 114.15-16.26L114.15-16.26Q113.33-15.25 112.05-15.76L112.05-15.76Q108.3-17.28 104.79-19.81L104.79-19.81Q101.2-22.35 98.79-25.23L98.79-25.23 98.79-18.49Q98.79-17.08 97.38-17.08L97.38-17.08Q95.98-17.08 95.98-18.49L95.98-18.49 95.98-25.23Q93.56-22.27 90.01-19.62L90.01-19.62Q86.5-17.04 82.84-15.48L82.84-15.48Z" transform="translate(-1.751474380493164, 32.63999938964844)"></path></g> <!----> <!----> <!----> <!----> <!----> <!----> <!----></g></g> <g data-gra="path-slogan" fill-rule="" class="tp-slogan" fill="#333" transform="translate(31.348440170288086,41.599998474121094)"><!----> <!----> <g transform="scale(1, 1)"><g transform="scale(1)"><path d="M7.17-6.09L7.17-6.09L6.09-6.09Q6-7.73 3.94-7.83L3.94-7.83Q2.02-7.78 2.02-6.33L2.02-6.33Q2.02-5.39 3.05-5.25L3.05-5.25L5.48-4.69Q7.41-4.22 7.41-2.34L7.41-2.34Q7.36 0.05 4.03 0.14L4.03 0.14Q2.20 0.14 1.45-0.61L1.45-0.61Q0.52-1.31 0.56-2.77L0.56-2.77L1.69-2.77Q1.73-0.80 4.03-0.75L4.03-0.75Q6.28-0.80 6.33-2.20L6.33-2.20Q6.52-3.38 4.45-3.75L4.45-3.75L2.67-4.13Q0.84-4.64 0.84-6.19L0.84-6.19Q0.98-8.72 3.84-8.81L3.84-8.81Q7.08-8.81 7.17-6.09ZM10.03-5.06L14.53-5.06L14.53-8.58L15.70-8.58L15.70 0L14.53 0L14.53-3.98L10.03-3.98L10.03 0L8.86 0L8.86-8.58L10.03-8.58L10.03-5.06ZM17.67-8.58L18.84-8.58L18.84 0L17.67 0L17.67-8.58ZM24.33 0L20.86 0L20.86-8.58L24.38-8.58Q27.84-8.39 27.98-4.41L27.98-4.41Q27.80-0.09 24.33 0L24.33 0ZM24.19-7.64L22.03-7.64L22.03-0.98L24.28-0.98Q26.72-1.13 26.81-4.31L26.81-4.31Q26.77-7.55 24.19-7.64L24.19-7.64ZM35.11-3.19L35.11-8.58L36.28-8.58L36.28-3.05Q36.14 0.05 32.77 0.14L32.77 0.14Q29.63 0.05 29.48-2.86L29.48-2.86L29.48-8.58L30.66-8.58L30.66-3.19Q30.70-0.84 32.81-0.80L32.81-0.80Q35.11-0.84 35.11-3.19L35.11-3.19ZM44.86-4.27L44.86-4.27Q44.67-7.64 41.86-7.83L41.86-7.83Q39-7.69 38.86-4.27L38.86-4.27Q39-0.94 41.86-0.80L41.86-0.80Q44.67-0.98 44.86-4.27ZM46.03-4.27L46.03-4.27Q45.75 0 41.86 0.14L41.86 0.14Q37.92 0 37.64-4.27L37.64-4.27Q37.88-8.72 41.86-8.81L41.86-8.81Q45.75-8.67 46.03-4.27ZM50.72-8.58L51.89-8.58L51.89-1.03L56.25-1.03L56.25 0L50.72 0L50.72-8.58ZM57.56-8.58L58.73-8.58L58.73 0L57.56 0L57.56-8.58Z" transform="translate(-0.5602678571428572, 8.8125)"></path></g></g></g></g></g></g><mask id="dfecfb3e-597a-417f-9f36-6eb04d3d0f4b"><g fill="white"><g><rect fill-opacity="1" stroke-width="2" x="0" y="0" width="150" height="123.75012375012375" class="image-rect"></rect> <svg x="0" y="0" width="150" height="123.75012375012375" filtersec="colorsb5975692660" class="image-svg-svg primary" style="overflow: visible;"><svg viewBox="0 0 263.25 217.18099975585938" xmlns="http://www.w3.org/2000/svg"><defs><linearGradient x1="0%" y1="49.978%" y2="49.978%" id="a4991f71a-1043-4a3b-a399-8e3af93c3215"><stop stop-color="#C2D73E" offset="0%"></stop><stop stop-color="#7CBF4A" offset="100%"></stop></linearGradient><linearGradient x1="0%" y1="50.022%" y2="50.022%" id="b228d9392-5749-446d-ba8a-959377a687c3"><stop stop-color="#C2D73E" offset="0%"></stop><stop stop-color="#7CBF4A" offset="100%"></stop></linearGradient><linearGradient x1=".036%" y1="50.022%" y2="50.022%" id="c2dee7c5f-47a2-4f5f-b879-c4ca1c4b708c"><stop stop-color="#C2D73E" offset="0%"></stop><stop stop-color="#7CBF4A" offset="100%"></stop></linearGradient><linearGradient x1="0%" y1="50%" y2="50%" id="dfaa7e3b5-d67d-494d-a74a-de292074abe0"><stop stop-color="#C2D73E" offset="0%"></stop><stop stop-color="#7CBF4A" offset="100%"></stop></linearGradient><linearGradient x1="0%" y1="49.977%" y2="49.977%" id="eece17a15-a766-4654-93f9-cee02857ad70"><stop stop-color="#C2D73E" offset="0%"></stop><stop stop-color="#7CBF4A" offset="100%"></stop></linearGradient><linearGradient x1="0%" y1="49.977%" y2="49.977%" id="f9e132e9f-55d1-4af1-9cb4-b407bc7078e1"><stop stop-color="#C2D73E" offset="0%"></stop><stop stop-color="#7CBF4A" offset="100%"></stop></linearGradient><linearGradient x1="0%" y1="49.977%" y2="49.977%" id="g6aee8b41-ed77-4a55-bd56-df70fdabac40"><stop stop-color="#C2D73E" offset="0%"></stop><stop stop-color="#7CBF4A" offset="100%"></stop></linearGradient><linearGradient x1="0%" y1="49.954%" y2="49.954%" id="hb4531cf7-2dc8-40e8-9ea4-2ee0159a59e2"><stop stop-color="#C2D73E" offset="0%"></stop><stop stop-color="#7CBF4A" offset="100%"></stop></linearGradient><linearGradient x1="0%" y1="50.026%" y2="50.026%" id="i1838ab89-2fed-4ff4-b972-66ba35ddb233"><stop stop-color="#C2D73E" offset="0%"></stop><stop stop-color="#7CBF4A" offset="100%"></stop></linearGradient></defs><g fill-rule="nonzero" fill="none"><path d="M72.475 26.41C51.987 38.992 43.622 65.552 43.622 96.272c0 42.862 16.2 77.625 59.062 77.625 38.708 0 113.818-28.35 128.014-65.414 1.474 4.336 2.261 8.767 2.261 13.27 0 52.735-107.578 95.428-160.312 95.428C19.912 217.181 0 174.487 0 121.753c0-52.207 19.682-94.49 71.162-95.33z" opacity=".64"></path><path d="M87.075 0c52.65 0 160.228 42.694 160.228 95.428 0 52.65-107.578 95.344-160.312 95.344-52.735 0-72.647-42.694-72.647-95.344C14.344 42.778 34.425 0 87.075 0zm15.61 18.647c-42.779 0-59.063 34.762-59.063 77.625 0 42.862 16.2 77.625 59.062 77.625 42.863 0 130.36-34.763 130.36-77.625 0-42.863-87.582-77.625-130.36-77.625z" opacity=".65"></path><path d="M103.022 18.647c52.397 0 160.228 42.694 160.228 95.428 0 52.65-107.578 95.344-160.313 95.344-52.734 0-72.73-42.694-72.73-95.344 0-51.413 19.47-93.413 69.175-95.358-40.316 1.753-55.76 35.813-55.76 77.555 0 42.862 16.2 77.625 59.062 77.625 42.863 0 130.36-34.763 130.36-77.625 0-42.863-87.582-77.625-130.36-77.625h.338z" opacity=".36"></path><path d="M87.075 12.066c52.65 0 160.228 42.693 160.228 95.428 0 52.65-107.578 95.344-160.312 95.344-52.735 0-72.647-42.525-72.647-95.344 0-52.819 20.081-95.428 72.731-95.428zm15.61 6.58c-42.779 0-59.063 34.763-59.063 77.626 0 42.862 16.2 77.625 59.062 77.625 42.863 0 130.36-34.763 130.36-77.625 0-42.863-87.582-77.625-130.36-77.625z" opacity=".63"></path><path d="M78.111 23.445c-24.602 10.95-34.49 39.43-34.49 72.827 0 42.862 16.2 77.625 59.063 77.625 35.144 0 100.293-23.37 122.619-55.412-13.15 41.388-97.065 73.384-139.915 73.384-46.576 0-64.294-37.8-64.294-84.375 0-43.78 15.656-79.808 56.22-83.973z"></path><path d="M66.704 30.582c-16.302 13.75-23.082 38.033-23.082 65.69 0 42.862 16.2 77.625 59.062 77.625 35.578 0 101.906-23.95 123.426-56.603a37.21 37.21 0 0 1 .268 4.46c0 50.624-103.106 91.462-153.562 91.462-50.457 0-69.694-40.922-69.694-91.463 0-48.013 17.286-87.27 62.346-91.076z" opacity=".64"></path><path d="M86.569 5.063c50.54 0 153.562 40.921 153.562 91.378 0 50.625-103.106 91.462-153.562 91.462-50.457 0-69.694-40.922-69.694-91.462 0-50.541 19.153-91.379 69.694-91.379zm16.115 13.584c-42.778 0-59.062 34.762-59.062 77.625 0 42.862 16.2 77.625 59.062 77.625 42.863 0 130.36-34.763 130.36-77.625 0-42.863-87.582-77.625-130.36-77.625z" opacity=".65"></path><path d="M62.669 34.399C49.275 48.576 43.622 71.018 43.622 96.272c0 42.862 16.2 77.625 59.062 77.625 42.863 0 130.36-34.763 130.36-77.625 0-16.539-13.04-31.872-31.514-44.467 30.208 16.348 53.873 38.34 53.873 62.523 0 50.625-103.106 91.463-153.562 91.463-50.457 0-69.694-40.922-69.694-91.463 0-34.368 8.856-64.248 30.416-79.853z" opacity=".36"></path><path d="M86.569 21.875c6.513 0 13.898.675 21.822 1.96a90.39 90.39 0 0 0-5.707-.188c-42.778 0-59.062 34.762-59.062 77.625 0 42.862 16.2 77.625 59.062 77.625 42.863 0 130.36-34.763 130.36-77.625 0-6.73-2.159-13.259-5.964-19.486 8.165 9.753 13.051 20.292 13.051 31.298 0 50.625-103.106 91.379-153.562 91.379-50.457 0-69.694-40.922-69.694-91.379 0-50.456 19.153-91.209 69.694-91.209z" opacity=".63"></path><path d="M68.69 28.995C50.95 42.409 43.622 67.518 43.622 96.272c0 42.862 16.2 77.625 59.062 77.625 29.207 0 79.137-16.14 107.988-39.986-24.919 31.974-90.103 55.005-125.706 55.005-44.635 0-61.678-36.197-61.678-80.832 0-38.385 12.48-70.593 44.472-78.859z"></path></g></svg></svg> </g></g> <g transform="translate(13.56573486328125,35.59881019592285)" fill="black" stroke="black" stroke-width="6" stroke-linejoin="round"><g data-gra="path-name" fill-rule="" class="tp-name" transform="translate(0,0)"><g transform="scale(1)"><g><path d="M5.23 2.96L5.23 2.96Q3.59 2.96 3.24 1.91L3.24 1.91Q2.96 1.13 3.51 0.7L3.51 0.7Q4.02 0.35 4.99 0.39L4.99 0.39Q5.77 0.39 6.55 0.39L6.55 0.39Q7.25 0.39 7.25-0.35L7.25-0.35 7.25-10.8 3.63-9.67Q2.18-9.2 1.83-10.63 1.48-12.05 2.69-12.36L2.69-12.36Q3.35-12.56 4.76-12.95L4.76-12.95Q6.4-13.42 7.25-13.65L7.25-13.65 7.25-22.15 3.28-22.15Q1.95-22.15 1.95-23.48 1.95-24.8 3.28-24.8L3.28-24.8 7.25-24.8 7.25-31.24Q7.25-32.6 8.66-32.6L8.66-32.6Q10.02-32.6 10.02-31.24L10.02-31.24 10.02-24.8 12.99-24.8Q14.31-24.8 14.31-23.48 14.31-22.15 12.99-22.15L12.99-22.15 10.02-22.15 10.02-14.47 12.99-15.33Q14.31-15.72 14.55-14.31L14.55-14.31Q14.74-13.14 13.61-12.79L13.61-12.79 10.02-11.66 10.02-0.35Q10.02 1.87 8.7 2.5L8.7 2.5Q7.68 2.89 5.23 2.96ZM32.14 1.25L18.88 1.25Q17.86 1.25 17.24 0.62 16.61 0 16.61-1.01L16.61-1.01 16.61-10.3Q16.61-11.31 17.24-11.93 17.86-12.56 18.88-12.56L18.88-12.56 32.14-12.56Q33.15-12.56 33.77-11.93 34.4-11.31 34.4-10.3L34.4-10.3 34.4-1.01Q34.4 0 33.77 0.62 33.15 1.25 32.14 1.25L32.14 1.25ZM20.16-1.36L20.16-1.36 30.73-1.36Q31.55-1.36 31.55-2.18L31.55-2.18 31.55-9.09Q31.55-9.91 30.73-9.91L30.73-9.91 20.16-9.91Q19.34-9.91 19.34-9.09L19.34-9.09 19.34-2.18Q19.34-1.36 20.16-1.36ZM31-17.51L19.77-17.51Q18.49-17.51 18.49-18.84L18.49-18.84Q18.49-20.12 19.77-20.12L19.77-20.12 31-20.12Q32.29-20.12 32.29-18.84L32.29-18.84Q32.29-17.51 31-17.51L31-17.51ZM16.03-18.6Q14.74-17.59 13.92-18.84L13.92-18.84Q13.18-19.97 14.35-20.86L14.35-20.86Q16.96-23.01 19.42-25.93L19.42-25.93Q21.8-28.78 23.28-31.55L23.28-31.55Q23.83-32.56 25.16-32.56L25.16-32.56 25.27-32.56Q26.44-32.56 27.11-31.59L27.11-31.59Q29.17-28.47 31.65-25.76 34.13-23.05 36.47-21.25L36.47-21.25Q37.13-20.75 37.23-20.26 37.32-19.77 36.89-19.07L36.89-19.07Q36.04-17.75 34.75-18.8L34.75-18.8Q32.1-21.1 29.52-24.06 26.95-27.03 25.31-29.64L25.31-29.64Q23.79-26.91 21.37-24.02L21.37-24.02Q18.84-20.9 16.03-18.6L16.03-18.6ZM47.38 2.81Q46.02 3.04 45.47 1.99L45.47 1.99Q44.73 0.47 46.64 0.16L46.64 0.16Q55.42-1.17 61.62-4.49L61.62-4.49Q58.73-7.25 54.21-9.71L54.21-9.71Q51.79-8.46 49.02-7.41L49.02-7.41Q47.81-6.98 47.11-7.84L47.11-7.84Q46.02-9.2 48.24-9.91L48.24-9.91Q52.92-11.66 56.71-14.08L56.71-14.08Q60.22-16.34 62.4-18.84L62.4-18.84Q62.75-19.23 63.14-19.3L63.14-19.3Q63.38-19.34 64.04-19.19L64.04-19.19Q66.11-18.72 64.7-17.2L64.7-17.2Q63.77-16.26 63.3-15.83L63.3-15.83 72.54-15.83Q73.79-15.83 74.2-15.11 74.61-14.39 74.02-13.1L74.02-13.1Q67.31-0.51 47.38 2.81L47.38 2.81ZM64.19-6.01L64.19-6.01Q68.84-9.09 71.29-13.34L71.29-13.34 60.22-13.34Q58.66-12.17 56.82-11.12L56.82-11.12Q61.39-8.58 64.19-6.01ZM44.5-11.97Q43.17-11.66 42.63-12.68L42.63-12.68Q42.16-13.49 42.41-13.94 42.67-14.39 43.64-14.59L43.64-14.59Q50.54-16.15 56.36-19.38L56.36-19.38Q53.74-21.64 49.57-23.79L49.57-23.79Q47.93-22.89 45.36-21.72L45.36-21.72Q44.15-21.18 43.33-22.04L43.33-22.04Q42.16-23.32 44.34-24.18L44.34-24.18Q51.87-27.3 56.16-32.02L56.16-32.02Q56.71-32.68 57.84-32.45L57.84-32.45Q59.9-31.98 58.46-30.42L58.46-30.42Q57.76-29.72 57.37-29.37L57.37-29.37 66.73-29.37Q68.02-29.37 68.41-28.66 68.8-27.96 68.09-26.79L68.09-26.79Q64.43-21.18 57.64-17.2L57.64-17.2Q51.79-13.73 44.5-11.97L44.5-11.97ZM58.81-20.86L58.81-20.86Q63.1-23.75 65.44-26.91L65.44-26.91 54.41-26.91Q53.63-26.32 51.99-25.23L51.99-25.23Q56.47-22.93 58.81-20.86ZM92.43 2.92L92.43 2.92Q90.79 2.92 90.28 1.95L90.28 1.95Q89.86 1.09 90.44 0.66L90.44 0.66Q90.99 0.27 92.12 0.31L92.12 0.31Q93.64 0.31 95.16 0.31L95.16 0.31Q95.67 0.27 95.84 0.14 96.02 0 96.02-0.39L96.02-0.39 96.02-5.89 81.74-5.89Q80.42-5.89 80.42-7.25L80.42-7.25Q80.42-8.58 81.74-8.58L81.74-8.58 96.02-8.58 96.02-9.71Q96.02-10.61 96.91-10.61L96.91-10.61 97.62-10.61Q100.27-11.86 102.61-13.49L102.61-13.49 88.37-13.49Q87.09-13.49 87.09-14.78 87.09-16.07 88.37-16.07L88.37-16.07 96.33-16.07 105.57-16.03 105.77-16.03 105.85-16.07Q106.39-16.18 106.94-15.72L106.94-15.72Q108.19-14.63 107.29-13.88L107.29-13.88Q103.7-11 98.83-8.81L98.83-8.81 98.83-8.58 113.3-8.58Q114.62-8.58 114.62-7.25L114.62-7.25Q114.62-5.89 113.3-5.89L113.3-5.89 98.83-5.89 98.83-0.35Q98.83 0.86 98.47 1.48L98.47 1.48Q98.09 2.15 97.11 2.46L97.11 2.46Q95.9 2.85 92.43 2.92ZM82.84-15.48Q81.63-14.98 80.85-15.95L80.85-15.95Q80.26-16.73 80.44-17.22 80.61-17.71 81.55-18.06L81.55-18.06Q84.63-19.34 87.56-21.25L87.56-21.25Q90.52-23.2 92.66-25.39L92.66-25.39 81.86-25.39Q80.53-25.39 80.53-26.71 80.53-28.04 81.86-28.04L81.86-28.04 95.98-28.04 95.98-31.24Q95.98-32.64 97.38-32.64L97.38-32.64Q98.79-32.64 98.79-31.24L98.79-31.24 98.79-28.04 113.22-28.04Q114.54-28.04 114.54-26.71 114.54-25.39 113.22-25.39L113.22-25.39 102.02-25.39Q106.51-20.98 113.3-18.37L113.3-18.37Q114.35-18.02 114.54-17.59L114.54-17.59Q114.78-17.08 114.15-16.26L114.15-16.26Q113.33-15.25 112.05-15.76L112.05-15.76Q108.3-17.28 104.79-19.81L104.79-19.81Q101.2-22.35 98.79-25.23L98.79-25.23 98.79-18.49Q98.79-17.08 97.38-17.08L97.38-17.08Q95.98-17.08 95.98-18.49L95.98-18.49 95.98-25.23Q93.56-22.27 90.01-19.62L90.01-19.62Q86.5-17.04 82.84-15.48L82.84-15.48Z" transform="translate(-1.751474380493164, 32.63999938964844)"></path></g>       </g></g> <g data-gra="path-slogan" fill-rule="" class="tp-slogan" transform="translate(31.348440170288086,41.599998474121094)" fill="white">  <g transform="scale(1, 1)"><g transform="scale(1)"><path d="M7.17-6.09L7.17-6.09L6.09-6.09Q6-7.73 3.94-7.83L3.94-7.83Q2.02-7.78 2.02-6.33L2.02-6.33Q2.02-5.39 3.05-5.25L3.05-5.25L5.48-4.69Q7.41-4.22 7.41-2.34L7.41-2.34Q7.36 0.05 4.03 0.14L4.03 0.14Q2.20 0.14 1.45-0.61L1.45-0.61Q0.52-1.31 0.56-2.77L0.56-2.77L1.69-2.77Q1.73-0.80 4.03-0.75L4.03-0.75Q6.28-0.80 6.33-2.20L6.33-2.20Q6.52-3.38 4.45-3.75L4.45-3.75L2.67-4.13Q0.84-4.64 0.84-6.19L0.84-6.19Q0.98-8.72 3.84-8.81L3.84-8.81Q7.08-8.81 7.17-6.09ZM10.03-5.06L14.53-5.06L14.53-8.58L15.70-8.58L15.70 0L14.53 0L14.53-3.98L10.03-3.98L10.03 0L8.86 0L8.86-8.58L10.03-8.58L10.03-5.06ZM17.67-8.58L18.84-8.58L18.84 0L17.67 0L17.67-8.58ZM24.33 0L20.86 0L20.86-8.58L24.38-8.58Q27.84-8.39 27.98-4.41L27.98-4.41Q27.80-0.09 24.33 0L24.33 0ZM24.19-7.64L22.03-7.64L22.03-0.98L24.28-0.98Q26.72-1.13 26.81-4.31L26.81-4.31Q26.77-7.55 24.19-7.64L24.19-7.64ZM35.11-3.19L35.11-8.58L36.28-8.58L36.28-3.05Q36.14 0.05 32.77 0.14L32.77 0.14Q29.63 0.05 29.48-2.86L29.48-2.86L29.48-8.58L30.66-8.58L30.66-3.19Q30.70-0.84 32.81-0.80L32.81-0.80Q35.11-0.84 35.11-3.19L35.11-3.19ZM44.86-4.27L44.86-4.27Q44.67-7.64 41.86-7.83L41.86-7.83Q39-7.69 38.86-4.27L38.86-4.27Q39-0.94 41.86-0.80L41.86-0.80Q44.67-0.98 44.86-4.27ZM46.03-4.27L46.03-4.27Q45.75 0 41.86 0.14L41.86 0.14Q37.92 0 37.64-4.27L37.64-4.27Q37.88-8.72 41.86-8.81L41.86-8.81Q45.75-8.67 46.03-4.27ZM50.72-8.58L51.89-8.58L51.89-1.03L56.25-1.03L56.25 0L50.72 0L50.72-8.58ZM57.56-8.58L58.73-8.58L58.73 0L57.56 0L57.56-8.58Z" transform="translate(-0.5602678571428572, 8.8125)"></path></g></g></g></g></mask><defs v-gra="od"></defs></svg>